<svg width="17" height="18" viewBox="0 0 17 18" fill="none" xmlns="http://www.w3.org/2000/svg">
<path fill-rule="evenodd" clip-rule="evenodd" d="M3.375 7.875H4.5V9H3.375V7.875ZM3.9375 10.125C4.86956 10.125 5.625 9.36956 5.625 8.4375C5.625 7.50544 4.86956 6.75 3.9375 6.75C3.00544 6.75 2.25 7.50544 2.25 8.4375C2.25 9.36956 3.00544 10.125 3.9375 10.125ZM3.375 12.375H4.5V13.5H3.375V12.375ZM3.9375 14.625C4.86956 14.625 5.625 13.8696 5.625 12.9375C5.625 12.0054 4.86956 11.25 3.9375 11.25C3.00544 11.25 2.25 12.0054 2.25 12.9375C2.25 13.8696 3.00544 14.625 3.9375 14.625ZM7.875 7.875H9V9H7.875V7.875ZM8.4375 10.125C9.36956 10.125 10.125 9.36956 10.125 8.4375C10.125 7.50544 9.36956 6.75 8.4375 6.75C7.50544 6.75 6.75 7.50544 6.75 8.4375C6.75 9.36956 7.50544 10.125 8.4375 10.125ZM15.75 3.375H1.125V2.25C1.125 1.629 1.629 1.125 2.25 1.125H14.625C15.246 1.125 15.75 1.629 15.75 2.25V3.375ZM15.75 15.75C15.75 16.371 15.246 16.875 14.625 16.875H2.25C1.629 16.875 1.125 16.371 1.125 15.75V4.5H15.75V15.75ZM14.625 0H2.25C1.00744 0 0 1.00744 0 2.25V15.75C0 16.9926 1.00744 18 2.25 18H14.625C15.8676 18 16.875 16.9926 16.875 15.75V2.25C16.875 1.00744 15.8676 0 14.625 0ZM7.875 12.375H9V13.5H7.875V12.375ZM8.4375 14.625C9.36956 14.625 10.125 13.8696 10.125 12.9375C10.125 12.0054 9.36956 11.25 8.4375 11.25C7.50544 11.25 6.75 12.0054 6.75 12.9375C6.75 13.8696 7.50544 14.625 8.4375 14.625ZM12.375 12.375H13.5V13.5H12.375V12.375ZM12.9375 14.625C13.8696 14.625 14.625 13.8696 14.625 12.9375C14.625 12.0054 13.8696 11.25 12.9375 11.25C12.0054 11.25 11.25 12.0054 11.25 12.9375C11.25 13.8696 12.0054 14.625 12.9375 14.625ZM12.375 7.875H13.5V9H12.375V7.875ZM12.9375 10.125C13.8696 10.125 14.625 9.36956 14.625 8.4375C14.625 7.50544 13.8696 6.75 12.9375 6.75C12.0054 6.75 11.25 7.50544 11.25 8.4375C11.25 9.36956 12.0054 10.125 12.9375 10.125Z" fill="#66757D"/>
</svg>
