<svg width="19" height="18" viewBox="0 0 19 18" fill="none" xmlns="http://www.w3.org/2000/svg">
<path d="M15.2853 0.266931C15.6619 -0.0889741 16.2726 -0.0889744 16.6492 0.26693C17.0258 0.622835 17.0258 1.19987 16.6492 1.55578L1.64637 15.7331C1.26974 16.089 0.659101 16.089 0.282472 15.7331C-0.0941573 15.3772 -0.0941573 14.8001 0.282472 14.4442L15.2853 0.266931Z" fill="white"/>
<path d="M16.6492 14.4442C17.0258 14.8001 17.0258 15.3772 16.6492 15.7331C16.2726 16.089 15.6619 16.089 15.2853 15.7331L0.282476 1.55577C-0.0941532 1.19987 -0.0941545 0.622833 0.282475 0.266928C0.659104 -0.0889762 1.26974 -0.0889762 1.64637 0.266929L16.6492 14.4442Z" fill="white"/>
</svg>
