<svg width="20" height="20" viewBox="0 0 20 20" fill="none" xmlns="http://www.w3.org/2000/svg">
<path d="M18.0553 0.333663C18.5002 -0.111218 19.2215 -0.111218 19.6663 0.333663C20.1112 0.778544 20.1112 1.49984 19.6663 1.94472L1.94472 19.6663C1.49984 20.1112 0.778542 20.1112 0.333661 19.6663C-0.11122 19.2215 -0.11122 18.5002 0.333661 18.0553L18.0553 0.333663Z" fill="#66757D"/>
<path d="M19.6663 18.0553C20.1112 18.5002 20.1112 19.2215 19.6663 19.6663C19.2215 20.1112 18.5002 20.1112 18.0553 19.6663L0.333665 1.94472C-0.111215 1.49984 -0.111217 0.778542 0.333664 0.333661C0.778545 -0.11122 1.49984 -0.11122 1.94472 0.333661L19.6663 18.0553Z" fill="#66757D"/>
</svg>
