<svg width="24" height="21" viewBox="0 0 24 21" fill="none" xmlns="http://www.w3.org/2000/svg">
<path fill-rule="evenodd" clip-rule="evenodd" d="M22.1667 9.33333H1.16667C0.52267 9.33333 3.43323e-06 9.856 3.43323e-06 10.5C3.43323e-06 11.1452 0.52267 11.6667 1.16667 11.6667H22.1667C22.8107 11.6667 23.3333 11.1452 23.3333 10.5C23.3333 9.856 22.8107 9.33333 22.1667 9.33333ZM22.1667 18.6667H1.16667C0.52267 18.6667 3.43323e-06 19.1893 3.43323e-06 19.8333C3.43323e-06 20.4785 0.52267 21 1.16667 21H22.1667C22.8107 21 23.3333 20.4785 23.3333 19.8333C23.3333 19.1893 22.8107 18.6667 22.1667 18.6667ZM1.16667 2.33333H22.1667C22.8107 2.33333 23.3333 1.81183 23.3333 1.16667C23.3333 0.522667 22.8107 0 22.1667 0H1.16667C0.522667 0 0 0.522667 0 1.16667C0 1.81183 0.522667 2.33333 1.16667 2.33333Z" fill="white"/>
</svg>
