<svg width="19" height="19" viewBox="0 0 19 19" fill="none" xmlns="http://www.w3.org/2000/svg">
<path fill-rule="evenodd" clip-rule="evenodd" d="M16.7143 7.71429H10.2857V1.28571C10.2857 0.578571 9.711 0 9 0C8.289 0 7.71429 0.578571 7.71429 1.28571V7.71429H1.28571C0.574714 7.71429 0 8.29286 0 9C0 9.70714 0.574714 10.2857 1.28571 10.2857H7.71429V16.7143C7.71429 17.4214 8.289 18 9 18C9.711 18 10.2857 17.4214 10.2857 16.7143V10.2857H16.7143C17.4253 10.2857 18 9.70714 18 9C18 8.29286 17.4253 7.71429 16.7143 7.71429Z" fill="white"/>
</svg>
